<svg xmlns="http://www.w3.org/2000/svg" width="34" height="34" viewBox="0 0 34 34"><g fill="none" fill-rule="evenodd"><path d="M0 0h34v34H0z"/><path fill="#74B027" d="M28.336 6.143c.918 0 1.664.76 1.664 1.694v20.469C30 29.24 29.254 30 28.336 30H5.664C4.746 30 4 29.24 4 28.306V7.837c0-.934.746-1.694 1.664-1.694h2.834V9.02c0 1.041.832 1.889 1.856 1.889h.372c1.023 0 1.855-.848 1.855-1.89V6.144h9.045v2.85c0 1.041.833 1.889 1.856 1.889h.372c1.023 0 1.855-.575 1.855-1.616V6.143h2.627zm0 22.163h.001V12.849H5.663v15.457h22.672zM10.353 10.061A1.033 1.033 0 0 1 9.33 9.019V5.068c0-.576.458-1.042 1.023-1.042h.372c.566 0 1.024.466 1.024 1.042v3.951c0 .575-.458 1.042-1.024 1.042h-.372zm13.129-.026a1.033 1.033 0 0 1-1.024-1.042V5.042c0-.575.458-1.042 1.024-1.042h.372c.565 0 1.023.467 1.023 1.042v3.951c0 .575-.458 1.042-1.023 1.042h-.372zm-5.623 7.998a.216.216 0 0 1-.214-.218v-2.634c0-.12.096-.218.214-.218h2.988c.118 0 .214.098.214.218v2.634c0 .12-.096.218-.214.218h-2.988zm4.876 0a.216.216 0 0 1-.215-.218v-2.634c0-.12.096-.218.215-.218h2.988c.118 0 .214.098.214.218v2.634c0 .12-.096.218-.214.218h-2.988zM8.107 22.345a.216.216 0 0 1-.214-.218v-2.634c0-.12.096-.218.214-.218h2.988c.118 0 .215.098.215.218v2.634c0 .12-.097.218-.215.218H8.107zm4.876 0a.216.216 0 0 1-.214-.218v-2.634c0-.12.096-.218.214-.218h2.988c.118 0 .214.098.214.218v2.634c0 .12-.096.218-.214.218h-2.988zm4.876 0a.216.216 0 0 1-.214-.218v-2.634c0-.12.096-.218.214-.218h2.988c.118 0 .214.098.214.218v2.634c0 .12-.096.218-.214.218h-2.988zm4.876 0a.216.216 0 0 1-.215-.218v-2.634c0-.12.096-.218.215-.218h2.988c.118 0 .214.098.214.218v2.634c0 .12-.096.218-.214.218h-2.988zm-11.64 1.242c.118 0 .215.097.215.218v2.634c0 .12-.096.218-.215.218H8.107a.216.216 0 0 1-.214-.218v-2.634c0-.12.096-.218.214-.218h2.988zm4.876 0c.118 0 .214.097.214.218v2.634c0 .12-.096.218-.214.218h-2.988a.216.216 0 0 1-.214-.218v-2.634c0-.12.096-.218.214-.218h2.988zm4.876 0c.118 0 .214.097.214.218v2.634c0 .12-.096.218-.214.218h-2.988a.216.216 0 0 1-.214-.218v-2.634c0-.12.096-.218.214-.218h2.988zm4.876 0c.118 0 .214.097.214.218v2.634c0 .12-.096.218-.214.218h-2.988a.216.216 0 0 1-.215-.218v-2.634c0-.12.097-.218.215-.218h2.988z"/></g></svg>