<svg xmlns="http://www.w3.org/2000/svg" width="34" height="34" viewBox="0 0 34 34"><g fill="none" fill-rule="evenodd"><path d="M0 0h34v34H0z"/><path fill="#74B027" d="M5 22.723c0-.55.445-.996 1.005-.996h1.74c.555 0 1.005.455 1.005.996v5.281c0 .55-.445.996-1.005.996h-1.74A1.006 1.006 0 0 1 5 28.004v-5.28zm6.75-5.096c0-.547.445-.99 1.005-.99h1.74a.996.996 0 0 1 1.005.99V28.01a.995.995 0 0 1-1.005.991h-1.74a.996.996 0 0 1-1.005-.99V17.626zm6.75-5.805c0-.555.445-1.004 1.005-1.004h1.74c.555 0 1.005.45 1.005 1.004v16.175A1 1 0 0 1 21.245 29h-1.74c-.555 0-1.005-.45-1.005-1.003V11.822zM25.25 6a1 1 0 0 1 1.005-1h1.74C28.55 5 29 5.447 29 6v22a1 1 0 0 1-1.005 1h-1.74a1.002 1.002 0 0 1-1.005-1V6z"/></g></svg>