<svg xmlns="http://www.w3.org/2000/svg" width="34" height="34" viewBox="0 0 34 34"><g fill="none" fill-rule="evenodd"><path d="M0 0h34v34H0z"/><path fill="#74B027" d="M6.714 9.826c0-.663.11-1.286.329-1.868.219-.583.54-1.093.962-1.531.422-.438.94-.786 1.555-1.042.615-.257 1.312-.385 2.092-.385.802 0 1.51.128 2.124.385.615.256 1.13.604 1.548 1.042.416.438.734.948.953 1.53.22.583.33 1.206.33 1.869v1.234c0 .652-.11 1.27-.33 1.852a4.404 4.404 0 0 1-.953 1.523c-.417.433-.93.777-1.54 1.034-.609.256-1.309.385-2.1.385-.79 0-1.493-.129-2.108-.385a4.723 4.723 0 0 1-1.563-1.034 4.29 4.29 0 0 1-.97-1.523 5.216 5.216 0 0 1-.329-1.852V9.826zM9.44 11.06c0 .32.045.63.136.93.09.3.23.561.417.786.187.224.42.406.697.545.278.139.61.208.994.208.374 0 .7-.07.978-.208.278-.14.508-.321.69-.545.181-.225.318-.487.408-.786.091-.3.137-.61.137-.93V9.826c0-.321-.046-.63-.137-.93a2.3 2.3 0 0 0-.416-.794 2.093 2.093 0 0 0-.698-.553c-.278-.139-.61-.208-.994-.208-.374 0-.7.07-.978.208a2.01 2.01 0 0 0-.69.553 2.38 2.38 0 0 0-.408.794c-.09.3-.136.609-.136.93v1.234zm8.497 11.896c0-.652.11-1.272.328-1.86.22-.588.543-1.098.97-1.53a4.742 4.742 0 0 1 1.555-1.035c.61-.256 1.31-.385 2.1-.385.792 0 1.494.129 2.109.385a4.633 4.633 0 0 1 1.555 1.034c.422.433.743.943.962 1.531.219.588.329 1.208.329 1.86v1.25c0 .663-.11 1.283-.33 1.86a4.506 4.506 0 0 1-.953 1.523 4.397 4.397 0 0 1-1.547 1.034c-.615.251-1.312.377-2.092.377-.791 0-1.497-.126-2.117-.377a4.548 4.548 0 0 1-1.57-1.034 4.387 4.387 0 0 1-.97-1.523 5.196 5.196 0 0 1-.33-1.86v-1.25zm2.725 1.25c0 .321.048.631.144.93.097.3.241.564.433.794.193.23.428.414.706.553.278.139.604.208.978.208.395 0 .732-.07 1.01-.208.278-.139.505-.323.681-.553a2.24 2.24 0 0 0 .385-.794c.08-.299.12-.609.12-.93v-1.25c0-.32-.045-.63-.136-.93-.091-.3-.23-.561-.417-.786a2.14 2.14 0 0 0-.697-.545 2.161 2.161 0 0 0-.978-.208c-.374 0-.703.07-.986.208a2.05 2.05 0 0 0-.698.545 2.291 2.291 0 0 0-.409.786c-.09.3-.136.61-.136.93v1.25zm-8.176 2.726l-2.004-1.154L21.88 7.533l2.004 1.154-11.4 18.245z"/></g></svg>