
<svg xmlns="http://www.w3.org/2000/svg" width="34" height="34" viewBox="0 0 34 34"><g fill="none" fill-rule="evenodd"><path d="M0 0h34v34H0z"/><path fill="#74B027" d="M20.055 16.078c.253.251.365.588.356.922.01.334-.103.67-.356.922l-10.74 10.72a1.226 1.226 0 0 1-1.74-.01l-.22-.224a1.253 1.253 0 0 1 .009-1.756L17.034 17l-9.67-9.652a1.253 1.253 0 0 1-.01-1.756l.22-.225a1.226 1.226 0 0 1 1.74-.01l10.741 10.72zm7.59 0c.252.251.365.588.354.922.011.334-.102.67-.354.922l-10.74 10.72a1.226 1.226 0 0 1-1.741-.01l-.22-.224a1.253 1.253 0 0 1 .01-1.756L24.624 17l-9.67-9.652a1.253 1.253 0 0 1-.01-1.756l.22-.225a1.226 1.226 0 0 1 1.74-.01l10.74 10.72z"/></g></svg>